HIERARCHY
ROOT Hips
{
	OFFSET 0.000000 0.000000 0.000000
	CHANNELS 6 Xposition Yposition Zposition Zrotation Yrotation Xrotation 
	JOINT LHipJoint
	{
		OFFSET 0.000000 0.000000 0.000000
		CHANNELS 3 Zrotation Yrotation Xrotation
		JOINT LeftUpLeg
		{
			OFFSET 1.363060 -1.794630 0.839290
			CHANNELS 3 Zrotation Yrotation Xrotation
			JOINT LeftLeg
			{
				OFFSET 2.448110 -6.726130 0.000000
				CHANNELS 3 Zrotation Yrotation Xrotation
				JOINT LeftFoot
				{
					OFFSET 2.562200 -7.039590 0.000000
					CHANNELS 3 Zrotation Yrotation Xrotation
					JOINT LeftToeBase
					{
						OFFSET 0.157640 -0.433110 2.322550
						CHANNELS 3 Zrotation Yrotation Xrotation
						End Site
						{
							OFFSET 0.000000 0.000000 0.000000
						}
					}
				}
			}
		}
	}
	JOINT RHipJoint
	{
		OFFSET 0.000000 0.000000 0.000000
		CHANNELS 3 Zrotation Yrotation Xrotation
		JOINT RightUpLeg
		{
			OFFSET -1.305520 -1.794630 0.839290
			CHANNELS 3 Zrotation Yrotation Xrotation
			JOINT RightLeg
			{
				OFFSET -2.542530 -6.985550 0.000000
				CHANNELS 3 Zrotation Yrotation Xrotation
				JOINT RightFoot
				{
					OFFSET -2.568260 -7.056230 0.000000
					CHANNELS 3 Zrotation Yrotation Xrotation
					JOINT RightToeBase
					{
						OFFSET -0.164730 -0.452590 2.363150
						CHANNELS 3 Zrotation Yrotation Xrotation
						End Site
						{
							OFFSET 0.000000 0.000000 0.000000
						}
					}
				}
			}
		}
	}
	JOINT LowerBack
	{
		OFFSET 0.000000 0.000000 0.000000
		CHANNELS 3 Zrotation Yrotation Xrotation
		JOINT Spine
		{
			OFFSET 0.028270 2.035590 -0.193380
			CHANNELS 3 Zrotation Yrotation Xrotation
			JOINT Spine1
			{
				OFFSET 0.056720 2.048850 -0.042750
				CHANNELS 3 Zrotation Yrotation Xrotation
				JOINT Neck
				{
					OFFSET 0.000000 0.000000 0.000000
					CHANNELS 3 Zrotation Yrotation Xrotation
					JOINT Neck1
					{
						OFFSET -0.054170 1.746240 0.172020
						CHANNELS 3 Zrotation Yrotation Xrotation
						JOINT Head
						{
							OFFSET 0.104070 1.761360 -0.123970
							CHANNELS 3 Zrotation Yrotation Xrotation
							End Site
							{
								OFFSET 0.000000 0.000000 0.000000
							}
						}
					}
				}
				JOINT LeftShoulder
				{
					OFFSET 0.000000 0.000000 0.000000
					CHANNELS 3 Zrotation Yrotation Xrotation
					JOINT LeftArm
					{
						OFFSET 3.362410 1.200890 -0.311210
						CHANNELS 3 Zrotation Yrotation Xrotation
						JOINT LeftForeArm
						{
							OFFSET 4.983000 -0.000000 -0.000000
							CHANNELS 3 Zrotation Yrotation Xrotation
							JOINT LeftHand
							{
								OFFSET 3.483560 -0.000000 -0.000000
								CHANNELS 3 Zrotation Yrotation Xrotation
								JOINT LeftFingerBase
								{
									OFFSET 0.000000 0.000000 0.000000
									CHANNELS 3 Zrotation Yrotation Xrotation
									JOINT LeftHandIndex1
									{
										OFFSET 0.715260 -0.000000 -0.000000
										CHANNELS 3 Zrotation Yrotation Xrotation
										End Site
										{
											OFFSET 0.000000 0.000000 0.000000
										}
									}
								}
								JOINT LThumb
								{
									OFFSET 0.000000 0.000000 0.000000
									CHANNELS 3 Zrotation Yrotation Xrotation
									End Site
									{
										OFFSET 0.000000 0.000000 0.000000
									}
								}
							}
						}
					}
				}
				JOINT RightShoulder
				{
					OFFSET 0.000000 0.000000 0.000000
					CHANNELS 3 Zrotation Yrotation Xrotation
					JOINT RightArm
					{
						OFFSET -3.136600 1.374050 -0.404650
						CHANNELS 3 Zrotation Yrotation Xrotation
						JOINT RightForeArm
						{
							OFFSET -5.241900 -0.000000 -0.000000
							CHANNELS 3 Zrotation Yrotation Xrotation
							JOINT RightHand
							{
								OFFSET -3.444170 -0.000000 -0.000000
								CHANNELS 3 Zrotation Yrotation Xrotation
								JOINT RightFingerBase
								{
									OFFSET 0.000000 0.000000 0.000000
									CHANNELS 3 Zrotation Yrotation Xrotation
									JOINT RightHandIndex1
									{
										OFFSET -0.622530 -0.000000 -0.000000
										CHANNELS 3 Zrotation Yrotation Xrotation
										End Site
										{
											OFFSET 0.000000 0.000000 0.000000
										}
									}
								}
								JOINT RThumb
								{
									OFFSET 0.000000 0.000000 0.000000
									CHANNELS 3 Zrotation Yrotation Xrotation
									End Site
									{
										OFFSET 0.000000 0.000000 0.000000
									}
								}
							}
						}
					}
				}
			}
		}
	}
}
MOTION
Frames: 12
Frame Time: 0.008333
0.678899 17.867210 4.248934 -5.412132 -6.116293 0.177689 -1.077993 0.025949 -0.195948 -10.136264 -6.081621 -30.039533 1.630479 11.315487 30.710305 -2.773863 12.062510 8.324474 0.320200 -3.637200 -10.058200 -0.080420 -2.236859 2.236297 30.152894 7.492123 6.059530 -0.080123 -5.570012 18.821804 0.864315 -4.813394 -2.819822 -0.052300 1.476400 -4.060700 6.131627 2.798320 4.990835 1.320523 3.630027 -1.965062 0.971888 2.416463 -1.977119 -7.071941 -2.663171 -10.302217 3.479294 -2.691841 13.922251 2.736700 -1.806600 9.811900 -7.745447 3.027784 -2.513737 -82.355884 8.185644 23.150436 8.290282 -17.146324 -1.577309 -1.310932 -3.960407 12.235796 12.080752 23.300098 5.879200 -7.125000 0.000000 0.000000 -19.469800 56.965800 -5.860500 5.823946 -1.636998 -2.300715 76.157592 6.454548 21.811013 -18.018928 26.840854 -6.234545 1.196777 -0.403173 0.145239 -14.767949 12.318770 -3.588600 7.125000 0.000000 0.000000 7.827800 -16.901400 5.263700
0.675504 17.856312 4.375430 -5.474400 -6.112691 0.322518 -1.161255 -0.014295 -0.255514 -9.771082 -6.544929 -30.009541 1.298774 10.852698 29.181627 -2.865508 12.391051 8.533404 0.315350 -3.609628 -9.981018 -0.059946 -2.246232 2.270740 30.161144 7.267415 6.506427 -0.026231 -5.413903 18.411215 0.822458 -4.676661 -2.941353 -0.050086 1.444188 -3.971920 6.139720 2.807346 4.853164 1.339633 3.619971 -1.961560 1.016543 2.419253 -1.868891 -7.135664 -2.649740 -10.456050 3.483361 -2.645690 13.892986 2.750829 -1.788254 9.827189 -7.745052 3.030405 -2.496046 -82.512690 8.131352 22.719267 8.150515 -16.877516 -1.509846 -1.351854 -3.942510 12.340515 12.270191 23.187537 5.962655 -7.125000 0.000000 0.000000 -19.162919 56.897528 -5.731917 5.796303 -1.622902 -2.308475 75.929824 6.776764 22.169495 -18.345295 27.227737 -6.439652 1.179035 -0.303936 -0.098822 -14.648993 11.615863 -3.338340 7.125000 0.000000 0.000000 7.926860 -17.725830 5.185042
0.672086 17.845172 4.501706 -5.543297 -6.124097 0.464326 -1.243499 -0.053041 -0.314552 -9.389747 -7.016783 -29.969839 0.972513 10.390938 27.661055 -2.966748 12.742127 8.719257 0.306812 -3.559243 -9.840131 -0.039830 -2.256030 2.305315 30.177931 7.056420 6.959797 0.026828 -5.259426 18.004896 0.783879 -4.550366 -3.056132 -0.047431 1.404786 -3.863341 6.155660 2.821746 4.729819 1.356887 3.619130 -1.959684 1.051638 2.426558 -1.772541 -7.184527 -2.637659 -10.611958 3.484004 -2.604971 13.863637 2.759448 -1.771349 9.844104 -7.744062 3.031561 -2.480542 -82.659905 8.094422 22.293496 8.019655 -16.626252 -1.446864 -1.390944 -3.924614 12.452416 12.448199 23.075644 6.039551 -7.125000 0.000000 0.000000 -18.870452 56.826792 -5.606902 5.771391 -1.608356 -2.315418 75.707948 7.099938 22.515421 -18.646005 27.582481 -6.628126 1.163080 -0.215075 -0.299892 -14.549443 10.981952 -3.114346 7.125000 0.000000 0.000000 8.010707 -18.468583 5.110649
0.668472 17.831920 4.626066 -5.669818 -6.265962 0.579880 -1.316887 -0.078769 -0.368992 -8.868012 -7.562923 -29.845726 0.693576 9.938127 26.210952 -3.151394 13.289086 8.704521 0.266218 -3.310564 -9.145497 -0.022823 -2.269529 2.341036 30.268925 6.964623 7.469440 0.072642 -5.119135 17.635682 0.773795 -4.514796 -3.112219 -0.040946 1.302879 -3.582662 6.239812 2.882871 4.730997 1.358002 3.698386 -1.971931 1.003640 2.473102 -1.779429 -7.104216 -2.637308 -10.785907 3.454883 -2.611475 13.833547 2.720172 -1.766973 9.875156 -7.737893 3.019993 -2.484043 -82.723753 8.208399 21.914657 7.966213 -16.527485 -1.422832 -1.414108 -3.906736 12.626747 12.526854 22.969566 6.059426 -7.125000 0.000000 0.000000 -18.703278 56.734638 -5.512903 5.770217 -1.589891 -2.315265 75.537291 7.431448 22.752209 -18.723700 27.657864 -6.672028 1.162658 -0.216415 -0.127271 -14.618583 10.947780 -3.118669 7.125000 0.000000 0.000000 7.962310 -18.501375 5.073323
0.665513 17.818352 4.750687 -5.752870 -6.407692 0.697849 -1.390327 -0.103060 -0.422111 -8.386884 -8.129562 -29.716783 0.423281 9.490996 24.791699 -3.340753 13.832267 8.623217 0.225602 -3.052127 -8.424395 -0.004238 -2.284201 2.378192 30.298010 6.850024 7.956423 0.117123 -4.982506 17.276717 0.757224 -4.457251 -3.160925 -0.036681 1.236142 -3.398846 6.281947 2.948090 4.727313 1.353568 3.780733 -1.986579 0.960718 2.521328 -1.795233 -7.035095 -2.639891 -10.950438 3.438966 -2.620993 13.810455 2.689827 -1.764011 9.909754 -7.731060 3.010360 -2.490899 -82.783467 8.355936 21.568031 7.924108 -16.452906 -1.404317 -1.433051 -3.891685 12.767007 12.596471 22.874605 6.076527 -7.125000 0.000000 0.000000 -18.555620 56.652231 -5.429521 5.764487 -1.571273 -2.315043 75.378187 7.759683 22.952344 -18.811432 27.745568 -6.723105 1.159312 -0.223883 0.037446 -14.659726 10.975777 -3.135405 7.125000 0.000000 0.000000 7.935072 -18.465957 5.061954
0.665074 17.803567 4.876307 -5.668733 -6.548906 0.825107 -1.463967 -0.121825 -0.470149 -8.061939 -8.775042 -29.569259 0.186224 9.065711 23.491100 -3.548241 14.360917 8.285881 0.184902 -2.756159 -7.601494 0.020417 -2.303384 2.420874 30.088981 6.647726 8.356255 0.156471 -4.859954 16.957172 0.715705 -4.315192 -3.181243 -0.040951 1.304678 -3.587582 6.162479 3.029062 4.704924 1.327791 3.874967 -2.010462 0.937322 2.576029 -1.845330 -7.009012 -2.653754 -11.078742 3.473834 -2.642106 13.814272 2.693833 -1.766489 9.957992 -7.721665 3.008174 -2.510661 -82.827283 8.632548 21.345300 7.925605 -16.471362 -1.407023 -1.435757 -3.887510 12.776219 12.631324 22.822403 6.082959 -7.125000 0.000000 0.000000 -18.483025 56.607314 -5.386976 5.741230 -1.552069 -2.314553 75.263512 8.075324 23.011498 -18.937770 27.880657 -6.801782 1.144713 -0.254917 0.171761 -14.593191 11.242888 -3.199881 7.125000 0.000000 0.000000 7.989215 -18.168197 5.150418
0.664975 17.787765 5.002300 -5.586346 -6.661624 0.927660 -1.535871 -0.136649 -0.515456 -7.740024 -9.440430 -29.390942 -0.038036 8.650845 22.239974 -3.743419 14.841721 7.912165 0.145769 -2.449698 -6.750705 0.042382 -2.323007 2.460883 29.886703 6.406652 8.760344 0.191399 -4.745273 16.660242 0.684259 -4.209720 -3.227815 -0.050835 1.440770 -3.962751 6.047998 3.100990 4.683780 1.303911 3.957246 -2.024748 0.917869 2.624142 -1.872504 -7.002039 -2.673999 -11.157438 3.513477 -2.670083 13.808547 2.705559 -1.773520 9.986241 -7.714369 3.010399 -2.524518 -82.870581 8.876739 21.119713 7.913410 -16.464193 -1.403277 -1.444932 -3.880931 12.787872 12.704545 22.754888 6.107063 -7.125000 0.000000 0.000000 -18.354786 56.555903 -5.324882 5.712947 -1.536406 -2.312097 75.151671 8.380289 23.059065 -19.092995 28.054202 -6.899776 1.135182 -0.295108 0.277592 -14.570883 11.618106 -3.307290 7.125000 0.000000 0.000000 8.009254 -17.747023 5.237756
0.665633 17.769693 5.129125 -5.507865 -6.710777 0.975100 -1.603901 -0.142681 -0.554670 -7.424867 -10.150232 -29.143933 -0.233748 8.259221 21.099214 -3.911138 15.215793 7.457294 0.110131 -2.119831 -5.837706 0.058347 -2.343609 2.494930 29.699487 6.079080 9.173930 0.216468 -4.648150 16.413764 0.675286 -4.185864 -3.332956 -0.073241 1.727565 -4.753810 5.944639 3.152743 4.665414 1.284263 4.012855 -2.017625 0.907209 2.657559 -1.848540 -7.037695 -2.708483 -11.125471 3.563774 -2.713373 13.781540 2.734502 -1.790706 9.969898 -7.711754 3.022462 -2.525202 -82.912728 9.048608 20.887755 7.870669 -16.399860 -1.385141 -1.468541 -3.868992 12.804972 12.863358 22.653214 6.170590 -7.125000 0.000000 0.000000 -18.102417 56.490003 -5.219179 5.673450 -1.528644 -2.305258 75.046154 8.661440 23.080781 -19.312656 28.313533 -7.040859 1.136954 -0.355729 0.319881 -14.647237 12.234487 -3.510471 7.125000 0.000000 0.000000 7.953213 -17.050544 5.322582
0.665409 17.750876 5.255972 -5.493364 -6.780138 1.018673 -1.662667 -0.147784 -0.595731 -7.025798 -10.859542 -28.911463 -0.408355 7.889890 20.021026 -4.087641 15.618620 7.027825 0.080671 -1.820990 -5.011540 0.067620 -2.363202 2.525884 29.609754 5.805799 9.616669 0.239435 -4.554451 16.175657 0.690900 -4.241761 -3.416907 -0.101543 2.037249 -5.609314 5.893825 3.201461 4.650421 1.275052 4.067399 -2.008766 0.905484 2.690416 -1.824275 -7.065707 -2.728217 -11.060417 3.601181 -2.738553 13.725050 2.757614 -1.799603 9.925379 -7.708536 3.034971 -2.522262 -82.962875 9.214063 20.631869 7.816345 -16.314521 -1.364684 -1.488320 -3.846516 12.818122 12.992040 22.464505 6.197500 -7.125000 0.000000 0.000000 -17.825310 56.323258 -5.064000 5.640229 -1.522887 -2.297291 74.939684 8.945668 23.108360 -19.516234 28.549992 -7.171371 1.137552 -0.397342 0.374402 -14.713290 12.668736 -3.656279 7.125000 0.000000 0.000000 7.906114 -16.560563 5.376512
0.663930 17.730998 5.382851 -5.569912 -6.878258 1.056741 -1.708251 -0.151563 -0.639422 -6.507319 -11.568155 -28.699682 -0.552927 7.552284 19.031886 -4.276646 16.062367 6.634505 0.060005 -1.566302 -4.308945 0.067371 -2.381359 2.552436 29.658749 5.609779 10.100894 0.259410 -4.465624 15.949461 0.741500 -4.411154 -3.470703 -0.138236 2.379505 -6.556528 5.917786 3.245860 4.640227 1.280697 4.120428 -1.997435 0.916473 2.722479 -1.799580 -7.082842 -2.726962 -10.948278 3.620243 -2.737960 13.626605 2.772428 -1.796704 9.840764 -7.704460 3.048113 -2.514166 -83.024408 9.370392 20.341932 7.745538 -16.199285 -1.340924 -1.502650 -3.809047 12.825651 13.077843 22.151937 6.172300 -7.125000 0.000000 0.000000 -17.512998 56.013003 -4.838413 5.615938 -1.519986 -2.287718 74.831860 9.234275 23.144281 -19.696922 28.753903 -7.286841 1.136479 -0.411907 0.446328 -14.764685 12.843797 -3.720438 7.125000 0.000000 0.000000 7.871741 -16.364446 5.386476
0.662169 17.713804 5.510381 -5.667190 -6.996855 1.146780 -1.734889 -0.163373 -0.689214 -5.995648 -12.184051 -28.613145 -0.672749 7.261245 18.164758 -4.455577 16.486656 6.261462 0.053944 -1.496169 -4.115308 0.063893 -2.397476 2.580037 29.716781 5.457204 10.563383 0.284902 -4.364291 15.689665 0.768185 -4.494376 -3.466464 -0.165519 2.618468 -7.218504 5.977513 3.303621 4.580464 1.284541 4.188443 -1.994504 0.902925 2.762849 -1.766184 -7.099864 -2.728791 -10.898446 3.647279 -2.738957 13.530911 2.791376 -1.793315 9.776003 -7.699244 3.062714 -2.510818 -83.091718 9.536322 20.055076 7.686685 -16.103597 -1.320363 -1.528421 -3.771955 12.811104 13.254211 21.842641 6.193633 -7.125000 0.000000 0.000000 -17.104628 55.727252 -4.601729 5.592359 -1.517790 -2.281782 74.722208 9.485984 23.190836 -19.871682 28.951336 -7.399721 1.134518 -0.414565 0.493813 -14.800036 12.913488 -3.748291 7.125000 0.000000 0.000000 7.848736 -16.288946 5.383522
0.660143 17.699129 5.638520 -5.783922 -7.134669 1.285591 -1.743747 -0.182720 -0.744731 -5.490366 -12.712937 -28.644145 -0.769345 7.013909 17.412134 -4.625056 16.892685 5.907445 0.061588 -1.599236 -4.399309 0.057385 -2.411678 2.608624 29.783294 5.345402 11.005474 0.315573 -4.251220 15.398335 0.772427 -4.496729 -3.407761 -0.183971 2.760495 -7.612794 6.070806 3.373924 4.474183 1.286697 4.270523 -1.999455 0.866348 2.811014 -1.724622 -7.116778 -2.733515 -10.907086 3.681800 -2.741447 13.437799 2.814204 -1.789466 9.729873 -7.692959 3.078684 -2.511927 -83.164449 9.711261 19.771114 7.639051 -16.026253 -1.302804 -1.564929 -3.735218 12.775841 13.515569 21.536418 6.258637 -7.125000 0.000000 0.000000 -16.606111 55.464497 -4.354632 5.569445 -1.516258 -2.279261 74.610838 9.703068 23.247370 -20.040880 29.142692 -7.510171 1.131724 -0.406050 0.518361 -14.820331 12.884292 -3.742070 7.125000 0.000000 0.000000 7.836400 -16.326640 5.368444
